<?xml version="1.0" encoding="UTF-8" standalone="no"?>
<svg
   viewBox="0 0 200 200"
   version="1.1"
   id="svg131"
   sodipodi:docname="bird.svg"
   xml:space="preserve"
   inkscape:export-filename="..\3body1.png"
   inkscape:export-xdpi="96"
   inkscape:export-ydpi="96"
   inkscape:version="1.2 (dc2aedaf03, 2022-05-15)"
   width="200"
   height="200"
   xmlns:inkscape="http://www.inkscape.org/namespaces/inkscape"
   xmlns:sodipodi="http://sodipodi.sourceforge.net/DTD/sodipodi-0.dtd"
   xmlns="http://www.w3.org/2000/svg"
   xmlns:svg="http://www.w3.org/2000/svg"><sodipodi:namedview
     id="namedview133"
     pagecolor="#ffffff"
     bordercolor="#000000"
     borderopacity="0.25"
     inkscape:showpageshadow="2"
     inkscape:pageopacity="0.0"
     inkscape:pagecheckerboard="0"
     inkscape:deskcolor="#d1d1d1"
     showgrid="false"
     inkscape:zoom="2"
     inkscape:cx="147.5"
     inkscape:cy="117"
     inkscape:window-width="1920"
     inkscape:window-height="1017"
     inkscape:window-x="-8"
     inkscape:window-y="-8"
     inkscape:window-maximized="1"
     inkscape:current-layer="layer4" /><defs
     id="defs118"><style
       id="style116">.cls-1{fill:#eaeaea;}.cls-2{fill:#bd7f00;}.cls-3{fill:#2d2d2d;}</style></defs><title
     id="title120" /><g
     inkscape:groupmode="layer"
     id="layer3"
     inkscape:label="colori"
     style="display:none"><rect
       style="display:inline;fill:#aa4400;fill-opacity:1;stroke:none;stroke-width:4.38288;stroke-dasharray:7.39643, 7.39643;stroke-opacity:1"
       id="rect1861"
       width="51.804905"
       height="19.533634"
       x="203.36218"
       y="96.469475"
       ry="0.22931686" /><rect
       style="display:inline;fill:#2d2d2d;fill-opacity:1;stroke:none;stroke-width:4.38288;stroke-dasharray:7.39643, 7.39643;stroke-opacity:1"
       id="rect1861-6"
       width="51.804905"
       height="19.533634"
       x="203.36218"
       y="124.50507"
       ry="0.22931686" /><rect
       style="display:inline;fill:#878787;fill-opacity:1;stroke:none;stroke-width:4.38288;stroke-dasharray:7.39643, 7.39643;stroke-opacity:1"
       id="rect1861-6-43"
       width="51.804905"
       height="19.533634"
       x="276.59753"
       y="125.20576"
       ry="0.22931686" /><rect
       style="display:inline;fill:#bdbdbd;fill-opacity:1;stroke:none;stroke-width:4.38288;stroke-dasharray:7.39643, 7.39643;stroke-opacity:1"
       id="rect1861-6-43-7"
       width="51.804905"
       height="19.533634"
       x="276.59753"
       y="153.94205"
       ry="0.22931686" /><rect
       style="display:inline;fill:#742121;fill-opacity:1;stroke:none;stroke-width:4.38288;stroke-dasharray:7.39643, 7.39643;stroke-opacity:1"
       id="rect1861-6-4"
       width="51.804905"
       height="19.533634"
       x="203.36218"
       y="152.54068"
       ry="0.22931686" /><rect
       style="display:inline;fill:#6c5353;fill-opacity:1;stroke:none;stroke-width:4.38288;stroke-dasharray:7.39643, 7.39643;stroke-opacity:1"
       id="rect1861-6-4-3"
       width="51.804905"
       height="19.533634"
       x="203.36218"
       y="180.57629"
       ry="0.22931686" /><rect
       style="display:inline;fill:#ac9393;fill-opacity:1;stroke:none;stroke-width:4.38288;stroke-dasharray:7.39643, 7.39643;stroke-opacity:1"
       id="rect1861-6-4-3-6"
       width="51.804905"
       height="19.533634"
       x="276.59753"
       y="182.67834"
       ry="0.22931686" /><rect
       style="display:inline;fill:#eaeaea;fill-opacity:1;stroke:none;stroke-width:1.59666;stroke-dasharray:2.69448, 2.69448;stroke-opacity:1"
       id="rect1391"
       width="51.804905"
       height="19.533634"
       x="203.36218"
       y="68.433876"
       ry="0.086286373" /><rect
       style="display:inline;fill:#9bffff;fill-opacity:1;stroke:none;stroke-width:1.59666;stroke-dasharray:2.69448, 2.69448;stroke-opacity:1"
       id="rect1391-1"
       width="51.804905"
       height="19.533634"
       x="276.59753"
       y="67.733185"
       ry="0.086286373" /><rect
       style="display:inline;fill:#a4ffa4;fill-opacity:1;stroke:none;stroke-width:1.59666;stroke-dasharray:2.69448, 2.69448;stroke-opacity:1"
       id="rect1391-1-2"
       width="51.804905"
       height="19.533634"
       x="276.59753"
       y="96.469475"
       ry="0.086286373" /><rect
       style="display:inline;fill:#ff6600;fill-opacity:1;stroke:none;stroke-width:1.59666;stroke-dasharray:2.69448, 2.69448;stroke-opacity:1"
       id="rect1391-0"
       width="51.804905"
       height="19.533634"
       x="203.36218"
       y="40.398277"
       ry="0.086286373" /><rect
       style="display:inline;fill:#c59e00;fill-opacity:1;stroke:none;stroke-width:1.59666;stroke-dasharray:2.69448, 2.69448;stroke-opacity:1"
       id="rect1391-0-2"
       width="51.804905"
       height="19.533634"
       x="203.36218"
       y="12.362679"
       ry="0.086286373" /></g><g
     inkscape:groupmode="layer"
     id="layer2"
     inkscape:label="Layer 2"
     style="display:inline"><rect
       style="display:inline;fill:none;stroke:none;stroke-width:4.26851;stroke-dasharray:7.20345, 7.20345;stroke-opacity:1"
       id="rect522-7"
       width="200"
       height="200"
       x="1.0658141e-14"
       y="1.4210855e-14"
       ry="0.2723248"
       inkscape:label="body" /><rect
       style="display:none;fill:none;stroke:none;stroke-width:2.40179;stroke-dasharray:4.0532, 4.0532;stroke-opacity:1"
       id="rect522"
       width="119.20721"
       height="106.2363"
       x="40.738438"
       y="0"
       ry="0.14465389"
       inkscape:label="testa" /></g><g
     inkscape:groupmode="layer"
     id="g6059"
     inkscape:label="body3"
     style="display:none"><path
       style="fill:#bdbdbd;fill-opacity:1;stroke:none;stroke-width:6.75408;stroke-dasharray:11.398, 11.398;stroke-opacity:1"
       id="path6049"
       sodipodi:type="arc"
       sodipodi:cx="-320.56915"
       sodipodi:cy="120.61147"
       sodipodi:rx="17.756405"
       sodipodi:ry="65.85675"
       sodipodi:start="0"
       sodipodi:end="3.143833"
       sodipodi:arc-type="arc"
       d="m -302.81275,120.61147 a 17.756405,65.85675 0 0 1 -8.88969,57.0582 17.756405,65.85675 0 0 1 -17.76787,-0.0738 17.756405,65.85675 0 0 1 -8.8552,-57.13192"
       sodipodi:open="true"
       transform="matrix(-0.40013557,-0.91645596,0.07966562,-0.99682164,0,0)" /><path
       style="fill:#bdbdbd;fill-opacity:1;stroke:none;stroke-width:5.4054;stroke-dasharray:9.12208, 9.12208;stroke-opacity:1"
       id="path6051"
       sodipodi:type="arc"
       sodipodi:cx="-474.6351"
       sodipodi:cy="310.99478"
       sodipodi:rx="13.96272"
       sodipodi:ry="53.642948"
       sodipodi:start="0"
       sodipodi:end="3.143833"
       sodipodi:arc-type="arc"
       d="m -460.67238,310.99478 a 13.96272,53.642948 0 0 1 -6.99039,46.47617 13.96272,53.642948 0 0 1 -13.97174,-0.0601 13.96272,53.642948 0 0 1 -6.96328,-46.53623"
       sodipodi:open="true"
       transform="matrix(-0.07435713,-0.99723168,0.34177422,-0.93978209,0,0)" /><path
       style="fill:#878787;fill-opacity:1;stroke:none;stroke-width:5.08522;stroke-dasharray:8.58164, 8.58164;stroke-opacity:1"
       id="path6053"
       sodipodi:type="arc"
       sodipodi:cx="-258.15625"
       sodipodi:cy="80.775139"
       sodipodi:rx="14.315938"
       sodipodi:ry="46.30418"
       sodipodi:start="0"
       sodipodi:end="3.143833"
       sodipodi:arc-type="arc"
       d="m -243.84031,80.775139 a 14.315938,46.30418 0 0 1 -7.16723,40.117871 14.315938,46.30418 0 0 1 -14.32519,-0.0519 14.315938,46.30418 0 0 1 -7.13942,-40.169708"
       sodipodi:open="true"
       transform="matrix(-0.41714814,-0.9088385,0.34744139,-0.9377017,0,0)" /><path
       style="display:inline;fill:#eaeaea;fill-opacity:1;stroke:none;stroke-width:7.21785;stroke-dasharray:12.1807, 12.1807;stroke-opacity:1"
       id="path6055"
       sodipodi:type="arc"
       sodipodi:cx="-101.41797"
       sodipodi:cy="-199.61894"
       sodipodi:rx="53.93586"
       sodipodi:ry="115.65743"
       sodipodi:start="6.2771057"
       sodipodi:end="3.1463696"
       sodipodi:arc-type="slice"
       d="m -47.483106,-200.32209 a 53.93586,115.65743 0 0 1 -26.852073,100.722817 53.93586,115.65743 0 0 1 -54.104791,0.07557 53.93586,115.65743 0 0 1 -26.91324,-100.647724 l 53.93524,0.55249 z"
       transform="scale(-1)" /><path
       id="path6057"
       style="display:inline;fill:#bdbdbd;fill-opacity:1;stroke:none;stroke-width:0.859409;stroke-dasharray:3.43764, 0.859409"
       inkscape:transform-center-x="-0.29405018"
       inkscape:transform-center-y="-32.963936"
       d="M 90.94141,86.386718 A 14.517945,13.585536 0 0 1 76.25585,99.972657 6.2219762,5.8223724 0 0 1 74.99023,99.787101 l -1.59961,5.853519 -25.83203,94.5 53.85937,-0.0332 53.85939,-0.0312 L 127.25,105.60937 125.56054,99.916009 A 14.517945,13.585536 0 0 1 111.67968,86.38671 l 10e-6,9.705079 a 10.36996,9.7039543 5.2569305e-8 0 1 -11.38477,9.703121 10.701799,10.014481 0 0 1 -9.35351,-10.130855 z" /></g><g
     inkscape:groupmode="layer"
     id="layer5"
     inkscape:label="body2"
     style="display:none"><path
       style="fill:#eaeaea;fill-opacity:1;stroke:none;stroke-width:6.75408;stroke-dasharray:11.398, 11.398;stroke-opacity:1"
       id="path2670"
       sodipodi:type="arc"
       sodipodi:cx="-320.56915"
       sodipodi:cy="120.61147"
       sodipodi:rx="17.756405"
       sodipodi:ry="65.85675"
       sodipodi:start="0"
       sodipodi:end="3.143833"
       sodipodi:arc-type="arc"
       d="m -302.81275,120.61147 a 17.756405,65.85675 0 0 1 -8.88969,57.0582 17.756405,65.85675 0 0 1 -17.76787,-0.0738 17.756405,65.85675 0 0 1 -8.8552,-57.13192"
       sodipodi:open="true"
       transform="matrix(-0.40013557,-0.91645596,0.07966562,-0.99682164,0,0)" /><path
       style="fill:#eaeaea;fill-opacity:1;stroke:none;stroke-width:5.4054;stroke-dasharray:9.12208, 9.12208;stroke-opacity:1"
       id="path2670-3"
       sodipodi:type="arc"
       sodipodi:cx="-474.6351"
       sodipodi:cy="310.99478"
       sodipodi:rx="13.96272"
       sodipodi:ry="53.642948"
       sodipodi:start="0"
       sodipodi:end="3.143833"
       sodipodi:arc-type="arc"
       d="m -460.67238,310.99478 a 13.96272,53.642948 0 0 1 -6.99039,46.47617 13.96272,53.642948 0 0 1 -13.97174,-0.0601 13.96272,53.642948 0 0 1 -6.96328,-46.53623"
       sodipodi:open="true"
       transform="matrix(-0.07435713,-0.99723168,0.34177422,-0.93978209,0,0)" /><path
       style="fill:#2d2d2d;fill-opacity:1;stroke:none;stroke-width:5.08522;stroke-dasharray:8.58164, 8.58164;stroke-opacity:1"
       id="path2670-6"
       sodipodi:type="arc"
       sodipodi:cx="-258.15625"
       sodipodi:cy="80.775139"
       sodipodi:rx="14.315938"
       sodipodi:ry="46.30418"
       sodipodi:start="0"
       sodipodi:end="3.143833"
       sodipodi:arc-type="arc"
       d="m -243.84031,80.775139 a 14.315938,46.30418 0 0 1 -7.16723,40.117871 14.315938,46.30418 0 0 1 -14.32519,-0.0519 14.315938,46.30418 0 0 1 -7.13942,-40.169708"
       sodipodi:open="true"
       transform="matrix(-0.41714814,-0.9088385,0.34744139,-0.9377017,0,0)" /><path
       style="display:inline;fill:#6c5353;fill-opacity:1;stroke:none;stroke-width:7.21785;stroke-dasharray:12.1807, 12.1807;stroke-opacity:1"
       id="path2334"
       sodipodi:type="arc"
       sodipodi:cx="-101.41797"
       sodipodi:cy="-199.61894"
       sodipodi:rx="53.93586"
       sodipodi:ry="115.65743"
       sodipodi:start="6.2771057"
       sodipodi:end="3.1463696"
       sodipodi:arc-type="slice"
       d="m -47.483106,-200.32209 a 53.93586,115.65743 0 0 1 -26.852073,100.722817 53.93586,115.65743 0 0 1 -54.104791,0.07557 53.93586,115.65743 0 0 1 -26.91324,-100.647724 l 53.93524,0.55249 z"
       transform="scale(-1)" /><path
       id="path1302"
       style="display:inline;fill:#ac9393;fill-opacity:1;stroke:none;stroke-width:0.859409;stroke-dasharray:3.43764, 0.859409"
       inkscape:transform-center-x="-0.29405018"
       inkscape:transform-center-y="-32.963936"
       d="M 90.94141,86.386718 A 14.517945,13.585536 0 0 1 76.25585,99.972657 6.2219762,5.8223724 0 0 1 74.99023,99.787101 l -1.59961,5.853519 -25.83203,94.5 53.85937,-0.0332 53.85939,-0.0312 L 127.25,105.60937 125.56054,99.916009 A 14.517945,13.585536 0 0 1 111.67968,86.38671 l 10e-6,9.705079 a 10.36996,9.7039543 5.2569305e-8 0 1 -11.38477,9.703121 10.701799,10.014481 0 0 1 -9.35351,-10.130855 z" /></g><g
     inkscape:groupmode="layer"
     id="g3513"
     inkscape:label="body1"
     style="display:inline"><path
       style="fill:#878787;fill-opacity:1;stroke:none;stroke-width:6.75408;stroke-dasharray:11.398, 11.398;stroke-opacity:1"
       id="path3503"
       sodipodi:type="arc"
       sodipodi:cx="-320.56915"
       sodipodi:cy="120.61147"
       sodipodi:rx="17.756405"
       sodipodi:ry="65.85675"
       sodipodi:start="0"
       sodipodi:end="3.143833"
       sodipodi:arc-type="arc"
       d="m -302.81275,120.61147 a 17.756405,65.85675 0 0 1 -8.88969,57.0582 17.756405,65.85675 0 0 1 -17.76787,-0.0738 17.756405,65.85675 0 0 1 -8.8552,-57.13192"
       sodipodi:open="true"
       transform="matrix(-0.40013557,-0.91645596,0.07966562,-0.99682164,0,0)" /><path
       style="fill:#878787;fill-opacity:1;stroke:none;stroke-width:5.4054;stroke-dasharray:9.12208, 9.12208;stroke-opacity:1"
       id="path3505"
       sodipodi:type="arc"
       sodipodi:cx="-474.6351"
       sodipodi:cy="310.99478"
       sodipodi:rx="13.96272"
       sodipodi:ry="53.642948"
       sodipodi:start="0"
       sodipodi:end="3.143833"
       sodipodi:arc-type="arc"
       d="m -460.67238,310.99478 a 13.96272,53.642948 0 0 1 -6.99039,46.47617 13.96272,53.642948 0 0 1 -13.97174,-0.0601 13.96272,53.642948 0 0 1 -6.96328,-46.53623"
       sodipodi:open="true"
       transform="matrix(-0.07435713,-0.99723168,0.34177422,-0.93978209,0,0)" /><path
       style="fill:#eaeaea;fill-opacity:1;stroke:none;stroke-width:5.08522;stroke-dasharray:8.58164, 8.58164;stroke-opacity:1"
       id="path3507"
       sodipodi:type="arc"
       sodipodi:cx="-258.15625"
       sodipodi:cy="80.775139"
       sodipodi:rx="14.315938"
       sodipodi:ry="46.30418"
       sodipodi:start="0"
       sodipodi:end="3.143833"
       sodipodi:arc-type="arc"
       d="m -243.84031,80.775139 a 14.315938,46.30418 0 0 1 -7.16723,40.117871 14.315938,46.30418 0 0 1 -14.32519,-0.0519 14.315938,46.30418 0 0 1 -7.13942,-40.169708"
       sodipodi:open="true"
       transform="matrix(-0.41714814,-0.9088385,0.34744139,-0.9377017,0,0)" /><path
       style="display:inline;fill:#742121;fill-opacity:1;stroke:none;stroke-width:7.21785;stroke-dasharray:12.1807, 12.1807;stroke-opacity:1"
       id="path3509"
       sodipodi:type="arc"
       sodipodi:cx="-101.41797"
       sodipodi:cy="-199.61894"
       sodipodi:rx="53.93586"
       sodipodi:ry="115.65743"
       sodipodi:start="6.2771057"
       sodipodi:end="3.1463696"
       sodipodi:arc-type="slice"
       d="m -47.483106,-200.32209 a 53.93586,115.65743 0 0 1 -26.852073,100.722817 53.93586,115.65743 0 0 1 -54.104791,0.07557 53.93586,115.65743 0 0 1 -26.91324,-100.647724 l 53.93524,0.55249 z"
       transform="scale(-1)" /><path
       id="path3511"
       style="display:inline;fill:#878787;fill-opacity:1;stroke:none;stroke-width:0.859409;stroke-dasharray:3.43764, 0.859409"
       inkscape:transform-center-x="-0.29405018"
       inkscape:transform-center-y="-32.963936"
       d="M 90.94141,86.386718 A 14.517945,13.585536 0 0 1 76.25585,99.972657 6.2219762,5.8223724 0 0 1 74.99023,99.787101 l -1.59961,5.853519 -25.83203,94.5 53.85937,-0.0332 53.85939,-0.0312 L 127.25,105.60937 125.56054,99.916009 A 14.517945,13.585536 0 0 1 111.67968,86.38671 l 10e-6,9.705079 a 10.36996,9.7039543 5.2569305e-8 0 1 -11.38477,9.703121 10.701799,10.014481 0 0 1 -9.35351,-10.130855 z" /></g><g
     inkscape:groupmode="layer"
     id="layer4"
     inkscape:label="bird_contorno"
     style="display:inline;fill:#aa4400"><path
       class="cls-1"
       d="m 152.99433,89.785619 -3.25617,-9.898184 a 110.41934,103.32928 0 0 1 -4.87388,-30.37384 v 0 c 0,-1.397391 0,-2.794779 -0.22814,-4.172766 a 42.931634,40.174983 0 0 0 -2.07399,-8.947182 44.321211,41.475332 0 0 0 -2.94509,-6.288257 43.553834,40.75723 0 0 0 -13.95797,-14.362071 c -1.16143,-0.737516 -2.34359,-1.416799 -3.58798,-2.057271 a 43.719753,40.912495 0 0 0 -41.479844,0 c -1.244395,0.640472 -2.426591,1.319755 -3.588006,2.057271 a 42.848677,40.097349 0 0 0 -6.450115,4.968498 43.408655,40.621372 0 0 0 -9.332964,12.964682 42.537576,39.806227 0 0 0 -3.193948,11.644922 c -0.26964,1.397395 -0.26964,2.794783 -0.26964,4.192174 v 0 a 110.41934,103.32928 0 0 1 -4.873881,30.37384 l -3.256161,9.898184 a 3.7539257,3.5128851 0 0 0 -0.165961,0.989819 v 0 a 3.6087463,3.3770276 0 0 0 3.60874,3.377025 h 4.687222 a 12.443953,11.644923 0 0 0 11.718055,-7.763282 12.029154,11.256759 0 0 0 0.725897,-3.88164 v 11.644922 a 6.2219762,5.8224613 0 0 0 6.056056,5.822461 14.517945,13.585743 0 0 0 14.683864,-13.585743 v 9.277126 a 10.701799,10.014634 0 0 0 9.353706,10.131083 10.36996,9.7041025 0 0 0 11.38621,-9.704104 v -9.704105 a 14.517945,13.585743 0 0 0 14.68387,13.585743 6.2219762,5.8224613 0 0 0 6.05607,-5.822461 V 82.507541 a 12.029154,11.256759 0 0 0 0.72588,3.88164 12.443953,11.644923 0 0 0 11.71806,7.763282 h 4.68722 a 3.6087463,3.3770276 0 0 0 3.60874,-3.377025 v 0 a 3.7539257,3.5128851 0 0 0 -0.16592,-0.989819 z"
       id="path122-0"
       style="display:inline;fill:#742121;fill-opacity:0.5;stroke:#3c3c3c;stroke-width:2.00763;stroke-dasharray:8.0305, 2.00763;stroke-dashoffset:0;stroke-opacity:1"
       inkscape:label="contorno" /></g><g
     id="g4666"
     transform="matrix(2.073992,0,0,1.9407908,34.942646,-4.8297332)"
     style="display:none;fill:none;fill-opacity:1"
     inkscape:label="head3"><path
       class="cls-1"
       d="m 202.99427,89.783814 -3.25617,-9.898027 a 110.41933,103.3277 0 0 1 -4.87388,-30.373378 v 0 c 0,-1.397369 0,-2.794739 -0.22814,-4.1727 a 42.931634,40.174372 0 0 0 -2.07399,-8.947046 44.321209,41.474699 0 0 0 -2.94507,-6.28816 43.553832,40.756607 0 0 0 -13.95796,-14.361854 c -1.16144,-0.7375 -2.34362,-1.416777 -3.58801,-2.057238 a 43.719751,40.91187 0 0 0 -41.47984,0 c -1.2444,0.640461 -2.42657,1.319738 -3.58801,2.057238 a 42.848675,40.096738 0 0 0 -6.45011,4.968425 43.408653,40.620751 0 0 0 -9.33296,12.964484 42.537576,39.805621 0 0 0 -3.19395,11.644745 c -0.26962,1.397367 -0.26962,2.794737 -0.26962,4.192106 v 0 a 110.41933,103.3277 0 0 1 -4.87388,30.373378 l -3.256171,9.898027 a 3.7539255,3.5128313 0 0 0 -0.165919,0.98981 v 0 a 3.6087461,3.376976 0 0 0 3.60875,3.37697 h 4.68722 a 12.443952,11.644745 0 0 0 11.71805,-7.76316 12.029154,11.256587 0 0 0 0.7259,-3.881581 v 11.644741 a 6.221976,5.8223724 0 0 0 6.05606,5.82238 14.517944,13.585536 0 0 0 14.68386,-13.58554 v 9.27698 a 10.701799,10.014481 0 0 0 9.3537,10.130926 10.36996,9.7039542 0 0 0 11.38622,-9.703946 v -9.70396 a 14.517944,13.585536 0 0 0 14.68386,13.58554 6.221976,5.8223724 0 0 0 6.05606,-5.82238 V 82.505853 a 12.029154,11.256587 0 0 0 0.7259,3.881581 12.443952,11.644745 0 0 0 11.71805,7.76316 h 4.68722 a 3.6087461,3.376976 0 0 0 3.60875,-3.37697 v 0 a 3.7539255,3.5128313 0 0 0 -0.16592,-0.98981 z"
       id="path4658"
       inkscape:label="path122"
       style="display:inline;fill:#6c5353;fill-opacity:1;stroke-width:2.00629"
       transform="matrix(0.48216194,0,0,0.51525389,-40.956111,2.4885388)" /><path
       class="cls-2"
       d="m 35,27.46 h 1.95 a 1,1 0 0 1 1,1 v 11 H 27 a 1,1 0 0 1 -1,-1 v -2 a 9,9 0 0 1 9,-9 z"
       transform="rotate(45,31.983038,33.477808)"
       id="path4660"
       style="display:inline;fill:#c83737;fill-opacity:1" /><circle
       class="cls-3"
       cx="43.5"
       cy="24.5"
       r="1.5"
       id="circle4662"
       style="display:inline;fill:#a4ffa4;fill-opacity:1" /><circle
       class="cls-3"
       cx="20.5"
       cy="24.5"
       r="1.5"
       id="circle4664"
       style="display:inline;fill:#a4ffa4;fill-opacity:1"
       inkscape:label="circle128" /></g><g
     id="bird"
     transform="matrix(2.073992,0,0,1.9407908,34.942646,-4.8297332)"
     style="display:none;fill:none;fill-opacity:1"
     inkscape:label="head2"><path
       class="cls-1"
       d="m 202.99427,89.783814 -3.25617,-9.898027 a 110.41933,103.3277 0 0 1 -4.87388,-30.373378 v 0 c 0,-1.397369 0,-2.794739 -0.22814,-4.1727 a 42.931634,40.174372 0 0 0 -2.07399,-8.947046 44.321209,41.474699 0 0 0 -2.94507,-6.28816 43.553832,40.756607 0 0 0 -13.95796,-14.361854 c -1.16144,-0.7375 -2.34362,-1.416777 -3.58801,-2.057238 a 43.719751,40.91187 0 0 0 -41.47984,0 c -1.2444,0.640461 -2.42657,1.319738 -3.58801,2.057238 a 42.848675,40.096738 0 0 0 -6.45011,4.968425 43.408653,40.620751 0 0 0 -9.33296,12.964484 42.537576,39.805621 0 0 0 -3.19395,11.644745 c -0.26962,1.397367 -0.26962,2.794737 -0.26962,4.192106 v 0 a 110.41933,103.3277 0 0 1 -4.87388,30.373378 l -3.256171,9.898027 a 3.7539255,3.5128313 0 0 0 -0.165919,0.98981 v 0 a 3.6087461,3.376976 0 0 0 3.60875,3.37697 h 4.68722 a 12.443952,11.644745 0 0 0 11.71805,-7.76316 12.029154,11.256587 0 0 0 0.7259,-3.881581 v 11.644741 a 6.221976,5.8223724 0 0 0 6.05606,5.82238 14.517944,13.585536 0 0 0 14.68386,-13.58554 v 9.27698 a 10.701799,10.014481 0 0 0 9.3537,10.130926 10.36996,9.7039542 0 0 0 11.38622,-9.703946 v -9.70396 a 14.517944,13.585536 0 0 0 14.68386,13.58554 6.221976,5.8223724 0 0 0 6.05606,-5.82238 V 82.505853 a 12.029154,11.256587 0 0 0 0.7259,3.881581 12.443952,11.644745 0 0 0 11.71805,7.76316 h 4.68722 a 3.6087461,3.376976 0 0 0 3.60875,-3.37697 v 0 a 3.7539255,3.5128313 0 0 0 -0.16592,-0.98981 z"
       id="path122-02"
       inkscape:label="path122"
       style="display:inline;fill:#eaeaea;fill-opacity:1;stroke-width:2.00629"
       transform="matrix(0.48216194,0,0,0.51525389,-40.956111,2.4885388)" /><path
       class="cls-2"
       d="m 35,27.46 h 1.95 a 1,1 0 0 1 1,1 v 11 H 27 a 1,1 0 0 1 -1,-1 v -2 a 9,9 0 0 1 9,-9 z"
       transform="rotate(45,31.983038,33.477808)"
       id="path124"
       style="display:inline;fill:#ff6600;fill-opacity:1" /><circle
       class="cls-3"
       cx="43.5"
       cy="24.5"
       r="1.5"
       id="circle126"
       style="display:inline;fill:#2d2d2d;fill-opacity:1" /><circle
       class="cls-3"
       cx="20.5"
       cy="24.5"
       r="1.5"
       id="circle128"
       style="display:inline;fill:#2d2d2d;fill-opacity:1"
       inkscape:label="circle128" /></g><g
     id="g3419"
     transform="matrix(2.073992,0,0,1.9407908,34.942646,-4.8297332)"
     style="display:none;fill:none;fill-opacity:1"
     inkscape:label="head1"><path
       class="cls-1"
       d="m 202.99427,89.783814 -3.25617,-9.898027 a 110.41933,103.3277 0 0 1 -4.87388,-30.373378 v 0 c 0,-1.397369 0,-2.794739 -0.22814,-4.1727 a 42.931634,40.174372 0 0 0 -2.07399,-8.947046 44.321209,41.474699 0 0 0 -2.94507,-6.28816 43.553832,40.756607 0 0 0 -13.95796,-14.361854 c -1.16144,-0.7375 -2.34362,-1.416777 -3.58801,-2.057238 a 43.719751,40.91187 0 0 0 -41.47984,0 c -1.2444,0.640461 -2.42657,1.319738 -3.58801,2.057238 a 42.848675,40.096738 0 0 0 -6.45011,4.968425 43.408653,40.620751 0 0 0 -9.33296,12.964484 42.537576,39.805621 0 0 0 -3.19395,11.644745 c -0.26962,1.397367 -0.26962,2.794737 -0.26962,4.192106 v 0 a 110.41933,103.3277 0 0 1 -4.87388,30.373378 l -3.256171,9.898027 a 3.7539255,3.5128313 0 0 0 -0.165919,0.98981 v 0 a 3.6087461,3.376976 0 0 0 3.60875,3.37697 h 4.68722 a 12.443952,11.644745 0 0 0 11.71805,-7.76316 12.029154,11.256587 0 0 0 0.7259,-3.881581 v 11.644741 a 6.221976,5.8223724 0 0 0 6.05606,5.82238 14.517944,13.585536 0 0 0 14.68386,-13.58554 v 9.27698 a 10.701799,10.014481 0 0 0 9.3537,10.130926 10.36996,9.7039542 0 0 0 11.38622,-9.703946 v -9.70396 a 14.517944,13.585536 0 0 0 14.68386,13.58554 6.221976,5.8223724 0 0 0 6.05606,-5.82238 V 82.505853 a 12.029154,11.256587 0 0 0 0.7259,3.881581 12.443952,11.644745 0 0 0 11.71805,7.76316 h 4.68722 a 3.6087461,3.376976 0 0 0 3.60875,-3.37697 v 0 a 3.7539255,3.5128313 0 0 0 -0.16592,-0.98981 z"
       id="path3411"
       inkscape:label="path122"
       style="display:inline;fill:#742121;fill-opacity:1;stroke-width:2.00629"
       transform="matrix(0.48216194,0,0,0.51525389,-40.956111,2.4885388)" /><path
       class="cls-2"
       d="m 35,27.46 h 1.95 a 1,1 0 0 1 1,1 v 11 H 27 a 1,1 0 0 1 -1,-1 v -2 a 9,9 0 0 1 9,-9 z"
       transform="rotate(45,31.983038,33.477808)"
       id="path3413"
       style="display:inline;fill:#c59e00;fill-opacity:1" /><circle
       class="cls-3"
       cx="43.5"
       cy="24.5"
       r="1.5"
       id="circle3415"
       style="display:inline;fill:#9bffff;fill-opacity:1" /><circle
       class="cls-3"
       cx="20.5"
       cy="24.5"
       r="1.5"
       id="circle3417"
       style="display:inline;fill:#9bffff;fill-opacity:1"
       inkscape:label="circle128" /></g></svg>
