<?xml version="1.0" encoding="UTF-8" standalone="no"?>
<svg
   viewBox="0 0 64 64"
   version="1.1"
   id="svg1035"
   sodipodi:docname="dog.svg"
   inkscape:export-filename="..\2charactergreenblack.png"
   inkscape:export-xdpi="384"
   inkscape:export-ydpi="384"
   xml:space="preserve"
   inkscape:version="1.2 (dc2aedaf03, 2022-05-15)"
   xmlns:inkscape="http://www.inkscape.org/namespaces/inkscape"
   xmlns:sodipodi="http://sodipodi.sourceforge.net/DTD/sodipodi-0.dtd"
   xmlns="http://www.w3.org/2000/svg"
   xmlns:svg="http://www.w3.org/2000/svg"><sodipodi:namedview
     id="namedview1037"
     pagecolor="#ffffff"
     bordercolor="#000000"
     borderopacity="0.25"
     inkscape:showpageshadow="2"
     inkscape:pageopacity="0.0"
     inkscape:pagecheckerboard="0"
     inkscape:deskcolor="#d1d1d1"
     showgrid="false"
     inkscape:zoom="6.5963635"
     inkscape:cx="56.24311"
     inkscape:cy="34.791897"
     inkscape:window-width="1388"
     inkscape:window-height="1040"
     inkscape:window-x="239"
     inkscape:window-y="12"
     inkscape:window-maximized="0"
     inkscape:current-layer="layer3" /><defs
     id="defs1014"><style
       id="style1012">.cls-1{fill:#965500;}.cls-2{fill:#efc589;}.cls-3{fill:#b19267;}.cls-4{fill:#2d2d2d;}.cls-5{fill:#3e2c27;}</style></defs><title
     id="title1016" /><g
     inkscape:groupmode="layer"
     id="layer4"
     inkscape:label="Colori"
     style="display:none"><rect
       style="fill:#f5eae4;fill-opacity:1;stroke-width:0.471405"
       id="rect5830"
       width="9.407814"
       height="5.1905189"
       x="77.64151"
       y="5.4067903"
       ry="0.10733931" /><rect
       style="display:inline;fill:#cdc2bc;fill-opacity:1;stroke-width:0.471405"
       id="rect5830-8"
       width="9.407814"
       height="5.1905189"
       x="104.75034"
       y="5.8942661"
       ry="0.10733931" /><rect
       style="fill:#965500;fill-opacity:1"
       id="rect5953"
       width="9.8403578"
       height="5.8393335"
       x="75.154381"
       y="26.493273"
       ry="0.10733931" /><rect
       style="fill:#b19267;fill-opacity:1;stroke-width:0.693881"
       id="rect6019"
       width="8.7590008"
       height="6.9206915"
       x="96.24086"
       y="26.06073"
       ry="0.070821814" /><rect
       style="fill:#8c8c8c;fill-opacity:1"
       id="rect6487"
       width="8.5427284"
       height="6.2718768"
       x="96.673409"
       y="35.576679"
       ry="0.070821814" /><rect
       style="display:inline;fill:#c87137;fill-opacity:1;stroke-width:0.999997"
       id="rect6670"
       width="9.948494"
       height="6.8125558"
       x="75.586922"
       y="34.927864"
       ry="0.070821814" /><rect
       style="display:inline;fill:#85beef;fill-opacity:1;stroke-width:0.999997"
       id="rect6670-7"
       width="9.948494"
       height="6.8125558"
       x="96.132729"
       y="44.930428"
       ry="0.070821814" /><rect
       style="display:inline;fill:#3e2c27;fill-opacity:1;stroke-width:0.999997"
       id="rect6670-7-61"
       width="9.948494"
       height="6.8125558"
       x="83.264572"
       y="49.796539"
       ry="0.070821814" /><rect
       style="display:inline;fill:#563d37;fill-opacity:1;stroke-width:0.999997"
       id="rect6670-7-61-5"
       width="9.948494"
       height="6.8125558"
       x="82.043396"
       y="62.842346"
       ry="0.070821814" /><rect
       style="display:inline;fill:#c8dcae;fill-opacity:1;stroke-width:0.999997"
       id="rect6670-7-6"
       width="9.948494"
       height="6.8125558"
       x="96.240868"
       y="54.987053"
       ry="0.070821814" /><rect
       style="display:inline;fill:#f8b978;fill-opacity:1;stroke-width:0.471405"
       id="rect5830-7"
       width="9.407814"
       height="5.1905189"
       x="91.712852"
       y="5.5910692"
       ry="0.10733931" /></g><g
     inkscape:groupmode="layer"
     id="layer1"
     inkscape:label="Dimensione"
     style="display:inline"><rect
       style="display:inline;fill:none;fill-opacity:1;stroke-width:0.928717"
       id="rect1712"
       width="50"
       height="50"
       x="10"
       y="13.9"
       ry="0.25940332" /></g><path
     class="cls-2"
     d="M 53,33.198064 V 49.88624 a 8,7.8532593 0 0 1 -8,7.853259 H 19 A 8,7.8532593 0 0 1 11,49.88624 V 33.198064 A 21.84,21.439398 0 0 1 11.25,29.997861 6,5.8899445 0 0 0 13,30.253092 12,11.779889 0 0 0 25,18.473203 v -3.92663 a 5.16,5.0653522 0 0 0 -0.06,-0.775509 21.2,20.811137 0 0 1 14.12,0 5.16,5.0653522 0 0 0 -0.06,0.775509 v 3.92663 a 12,11.779889 0 0 0 12,11.779889 6,5.8899445 0 0 0 1.75,-0.255231 21.84,21.439398 0 0 1 0.25,3.200203 z"
     id="path6673"
     style="display:none;fill:#000000;fill-opacity:0;stroke:#d6d6d6;stroke-width:0.990786;stroke-dasharray:2.97236, 2.97236;stroke-dashoffset:0;stroke-opacity:1"
     inkscape:label="testa contorno"
     transform="matrix(0.62227,0,0,0.51801479,13.043154,13.839777)" /><g
     id="dog"
     transform="matrix(0.62227001,0,0,0.51801479,13.043154,13.839777)"
     style="display:inline"><g
       inkscape:groupmode="layer"
       id="layer2"
       inkscape:label="Body"
       transform="matrix(1.6070194,0,0,1.9304468,-20.960602,-26.716953)"
       style="display:inline"><path
         style="display:inline;fill:#563d37;fill-opacity:1;stroke-width:0.822746"
         d="M 40.107751,61.788774 48.216384,52.777728 47.631627,39.883404 Z"
         id="path6614" /><path
         sodipodi:type="star"
         style="display:inline;fill:#cdc2bc;fill-opacity:1"
         id="path1143"
         inkscape:flatsided="true"
         sodipodi:sides="3"
         sodipodi:cx="31.044205"
         sodipodi:cy="36.014336"
         sodipodi:r1="24.175398"
         sodipodi:r2="11.894201"
         sodipodi:arg1="0.52329042"
         sodipodi:arg2="1.5704881"
         inkscape:rounded="0"
         inkscape:randomized="0"
         d="M 51.98444,48.095578 10.111424,48.10849 31.03675,11.838939 Z"
         inkscape:transform-center-x="0.064643636"
         inkscape:transform-center-y="-5.9300243"
         transform="matrix(0.59704322,0,0,0.82714012,14.207043,24.194539)" /><path
         class="cls-2"
         d="M 53,33.198064 V 49.88624 a 8,7.8532593 0 0 1 -8,7.853259 H 19 A 8,7.8532593 0 0 1 11,49.88624 V 33.198064 A 21.84,21.439398 0 0 1 11.25,29.997861 6,5.8899445 0 0 0 13,30.253092 12,11.779889 0 0 0 25,18.473203 v -3.92663 a 5.16,5.0653522 0 0 0 -0.06,-0.775509 21.2,20.811137 0 0 1 14.12,0 5.16,5.0653522 0 0 0 -0.06,0.775509 v 3.92663 a 12,11.779889 0 0 0 12,11.779889 6,5.8899445 0 0 0 1.75,-0.255231 21.84,21.439398 0 0 1 0.25,3.200203 z"
         id="path1022"
         style="display:inline;fill:#cdc2bc;fill-opacity:1;stroke-width:0.990786"
         inkscape:label="path1022"
         transform="matrix(0.62227001,0,0,0.51801479,13.043154,13.839777)" /><path
         class="cls-3"
         d="m 43,48.904582 v 2.944973 a 6,5.8899445 0 0 1 -6,5.889944 H 27 a 6,5.8899445 0 0 1 -6,-5.889944 v -2.944973 a 11,10.798232 0 0 1 8,-10.385935 0.13,0.12761546 0 0 0 0,0.0589 1.49,1.4626695 0 0 0 0.77,1.305605 l 2.23,1.168172 2.23,-1.168172 a 1.49,1.4626695 0 0 0 0.77,-1.305605 0.13,0.12761546 0 0 0 0,-0.0589 11,10.798232 0 0 1 8,10.385935 z"
         id="path1024"
         style="display:inline;fill:#563d37;fill-opacity:1;stroke-width:0.990786"
         transform="matrix(0.62227001,0,0,0.51801479,13.043154,13.839777)" /></g><g
       inkscape:groupmode="layer"
       id="layer3"
       inkscape:label="Testa"
       style="display:inline"><path
         class="cls-1"
         d="m 25,14.546573 v 3.92663 A 12,11.779889 0 0 1 13,30.253092 6,5.8899445 0 0 1 7,24.363147 v -3.92663 A 12,11.779889 0 0 1 19,8.6566285 6,5.8899445 0 0 1 24.94,13.771064 5.16,5.0653522 0 0 1 25,14.546573 Z"
         id="path1018"
         style="display:inline;fill:#3e2c27;fill-opacity:1;stroke-width:0.990786" /><path
         class="cls-1"
         d="m 57,20.436517 v 3.92663 A 6,5.8899445 0 0 1 51,30.253092 12,11.779889 0 0 1 39,18.473203 v -3.92663 A 5.16,5.0653522 0 0 1 39.06,13.771064 6,5.8899445 0 0 1 45,8.6566285 12,11.779889 0 0 1 57,20.436517 Z"
         id="path1020"
         style="display:inline;fill:#3e2c27;fill-opacity:1;stroke-width:0.990786" /><ellipse
         class="cls-4"
         cx="23.5"
         cy="30.743919"
         id="circle1026"
         style="display:inline;fill:#c8dcae;fill-opacity:1;stroke-width:0.990786"
         rx="1.5"
         ry="1.4724861" /><ellipse
         class="cls-4"
         cx="40.5"
         cy="30.743919"
         id="circle1028"
         style="display:inline;fill:#c8dcae;fill-opacity:1;stroke-width:0.990786"
         rx="1.5"
         ry="1.4724861" /><path
         class="cls-5"
         d="M 32,52.831212 A 1,0.98165741 0 0 1 31,51.849555 V 40.069666 a 1,0.98165741 0 0 1 2,0 v 11.779889 a 1,0.98165741 0 0 1 -1,0.981657 z"
         id="path1030"
         style="display:inline;fill:#c87137;fill-opacity:1;stroke-width:0.990786" /><path
         class="cls-5"
         d="m 35,38.577546 a 1.49,1.4626695 0 0 1 -0.77,1.305605 L 32,41.051323 29.77,39.883151 A 1.49,1.4626695 0 0 1 29,38.577546 a 0.13,0.12761546 0 0 1 0,-0.0589 1.42,1.3939535 0 0 1 1.39,-1.393954 h 3.22 a 1.42,1.3939535 0 0 1 1.39,1.393954 0.13,0.12761546 0 0 1 0,0.0589 z"
         id="path1032"
         style="display:inline;fill:#c87137;fill-opacity:1;stroke-width:0.990786" /></g></g></svg>
